<?xml version="1.0" encoding="UTF-8"?><svg id="flags" xmlns="http://www.w3.org/2000/svg" viewBox="0 0 162 116"><defs><style>.cls-1{fill:#74acdf;}.cls-1,.cls-2,.cls-3,.cls-4,.cls-5{stroke-width:0px;}.cls-2{fill:#843511;}.cls-3{fill:#85340a;}.cls-4{fill:#efefef;}.cls-5{fill:#f6b40e;}</style></defs><g id="ARGENTINA"><rect class="cls-1" y="7.38" width="162" height="101.25"/><rect class="cls-4" y="41.13" width="162" height="33.75"/><g id="rays"><path id="ray1" class="cls-5" d="m80.36,58.27l5.76,12.55s.1.24.26.17c.16-.07.06-.31.06-.31l-4.8-12.95m-.14,4.88c-.07,1.91,1.1,2.96.95,4.66-.15,1.71.78,2.67,1,3.33.22.66-.23,1.06-.04,1.15.2.09.62-.43.48-1.37-.14-.94-.85-1.22-.69-3.3.17-2.08-.85-2.57-.6-4.47"/><path class="cls-3" d="m83.46,71.89s-.08-.01-.1-.02c-.17-.08-.11-.26-.06-.41.07-.19.16-.46.04-.81-.06-.17-.16-.36-.29-.59-.35-.64-.83-1.51-.72-2.79.07-.83-.18-1.5-.44-2.21-.27-.72-.55-1.47-.51-2.45h.23c-.03.94.24,1.67.5,2.37.27.74.53,1.43.45,2.31-.11,1.21.35,2.05.69,2.66.13.24.24.44.31.63.14.42.03.74-.04.95-.01.04-.03.1-.04.13.02,0,.04-.02.07-.05.13-.13.33-.53.24-1.2-.04-.3-.15-.53-.27-.8-.25-.53-.53-1.13-.41-2.53.08-1.01-.12-1.64-.32-2.25-.17-.53-.34-1.03-.32-1.74l-2.2-4.79.2-.09,2.03,4.42s0-.02,0-.03l.22.03c-.02.15-.03.28-.04.41l3.54,7.72s.07.13.11.12c.01,0,.01,0,.02-.01.02-.04,0-.11-.02-.14l-4.8-12.96.21-.08,4.8,12.95s.07.18.01.31c-.03.06-.07.11-.14.14-.11.05-.23.01-.32-.09-.06-.06-.09-.13-.09-.14l-3.31-7.22c.05.41.16.76.28,1.12.21.63.42,1.28.33,2.34-.11,1.35.16,1.92.39,2.42.13.27.24.52.29.86.11.73-.11,1.26-.36,1.44-.07.05-.14.07-.19.07Z"/><path id="ray1-2" class="cls-5" d="m80.31,58l.52,13.8s0,.26.17.26c.17,0,.17-.26.17-.26l.52-13.8m-2,4.46c-.8,1.74-.11,3.16-.91,4.67-.79,1.52-.3,2.77-.35,3.46-.05.7-.62.89-.48,1.05.14.16.74-.16.97-1.08.23-.92-.32-1.46.63-3.32.95-1.86.2-2.7,1.15-4.36"/><path class="cls-3" d="m81,72.18c-.2,0-.29-.19-.29-.37l-.3-7.94c-.11.4-.14.77-.17,1.15-.05.66-.1,1.34-.59,2.28-.62,1.2-.59,1.83-.56,2.39.01.3.03.58-.06.9-.18.72-.58,1.12-.88,1.2-.16.04-.24-.02-.28-.07-.13-.14,0-.29.1-.4.14-.15.32-.36.35-.73.01-.18-.01-.4-.04-.66-.08-.72-.19-1.71.4-2.85.39-.74.41-1.45.44-2.21.03-.77.06-1.57.46-2.46l.2.09c-.39.85-.42,1.62-.44,2.37-.03.78-.06,1.52-.47,2.31-.56,1.08-.46,2.03-.38,2.72.03.27.06.5.04.7-.03.44-.26.7-.4.86-.03.03-.07.08-.09.11.02,0,.04,0,.08-.02.17-.07.51-.36.68-1.02.07-.3.06-.55.05-.84-.03-.58-.05-1.24.59-2.5.46-.9.51-1.56.56-2.2.04-.55.08-1.08.37-1.73l-.2-5.26h.22s.18,4.85.18,4.85c0,0,0-.01.01-.02l.19.11c-.07.13-.14.25-.19.37l.32,8.49s.01.15.06.15.06-.12.06-.15l.52-13.81h.23s-.52,13.81-.52,13.81c0,0,0,.08-.03.16-.04.13-.14.21-.26.21Z"/><path id="ray1-3" class="cls-5" d="m80.36,57.74l-4.8,12.95s-.1.24.06.31c.16.07.26-.17.26-.17l5.76-12.55m-3.55,3.36c-1.4,1.3-1.31,2.87-2.63,3.97-1.31,1.1-1.33,2.44-1.65,3.06-.32.62-.92.58-.84.79.07.2.74.14,1.31-.63.57-.76.26-1.47,1.85-2.82,1.59-1.35,1.21-2.42,2.73-3.59"/><path class="cls-3" d="m75.67,71.12s-.07,0-.1-.02c-.18-.08-.19-.29-.12-.45l2.76-7.45c-.26.33-.42.66-.59.99-.3.59-.61,1.2-1.42,1.89-1.03.87-1.24,1.47-1.43,1.99-.1.28-.2.54-.4.81-.44.59-.97.82-1.27.77-.16-.02-.22-.12-.23-.17-.06-.18.11-.26.25-.33.18-.09.43-.21.6-.54.08-.16.14-.37.21-.62.2-.7.48-1.65,1.46-2.48.64-.53.94-1.18,1.25-1.87.32-.7.65-1.43,1.37-2.09l.15.16c-.68.63-1,1.34-1.32,2.02-.33.71-.64,1.39-1.31,1.95-.93.78-1.2,1.7-1.39,2.37-.07.26-.14.48-.23.66-.2.4-.5.55-.7.64-.04.02-.09.05-.12.06.01,0,.04.01.09.01h0c.19,0,.61-.14,1.01-.68.18-.25.27-.48.37-.76.2-.55.43-1.17,1.5-2.08.77-.66,1.07-1.25,1.36-1.82.25-.49.49-.97,1-1.45l1.83-4.94.21.08-1.69,4.56s.01-.01.02-.02l.14.18c-.12.09-.22.18-.32.27l-2.95,7.96s-.05.14,0,.16c.04.02.1-.09.11-.11l5.76-12.56.2.09-5.76,12.55s-.08.18-.21.23c-.03.01-.06.02-.1.02Z"/><path id="ray1-4" class="cls-5" d="m80.51,57.51l-9.39,10.13s-.18.18-.06.31c.12.12.31-.06.31-.06l10.13-9.39m-4.57,1.74c-1.79.67-2.31,2.15-3.95,2.66-1.63.51-2.17,1.74-2.7,2.2-.53.45-1.07.19-1.08.4-.01.22.63.41,1.45-.08.82-.49.8-1.26,2.79-1.9,1.99-.64,2.05-1.77,3.9-2.27"/><path class="cls-3" d="m71.15,68.1c-.07,0-.13-.03-.18-.07-.14-.14-.07-.34.06-.47l5.4-5.82c-.36.2-.64.44-.93.69-.5.43-1.02.88-2.03,1.2-1.29.41-1.71.88-2.09,1.29-.2.22-.39.42-.68.6-.63.38-1.21.38-1.47.22-.14-.08-.16-.19-.15-.25.01-.19.2-.2.36-.21.2-.01.48-.03.76-.27.13-.12.27-.29.44-.49.45-.57,1.07-1.35,2.3-1.73.79-.25,1.32-.74,1.87-1.25.57-.53,1.15-1.07,2.06-1.41l.08.21c-.87.32-1.44.85-1.99,1.36-.57.53-1.12,1.04-1.96,1.3-1.16.36-1.76,1.11-2.19,1.65-.17.21-.31.39-.46.52-.34.29-.67.31-.9.33-.05,0-.1,0-.14.01.01.01.03.03.07.05.17.07.62.11,1.2-.24.26-.16.43-.34.63-.56.39-.43.84-.92,2.18-1.35.97-.31,1.47-.74,1.95-1.16.42-.36.82-.71,1.48-.96l3.58-3.86.17.15-3.31,3.56s.02,0,.02,0l.06.22c-.14.04-.27.08-.39.13l-5.78,6.23s-.1.12-.06.15c.03.03.13-.05.15-.06l10.13-9.4.15.16-10.13,9.39s-.06.06-.13.09c-.05.03-.1.04-.15.04Z"/><path id="ray2" class="cls-3" d="m81.87,62.94c.09,1.83,1.13,2.65.93,4.32.45-1.32-.63-2.35-.57-4.3m-1.55-4.81l3.95,8.62-3.31-8.89"/><path id="ray2-2" class="cls-3" d="m79.91,62.9c-.62,1.73.03,2.88-.8,4.34.92-1.05.31-2.41,1.12-4.19m.41-5.04l.35,9.48.35-9.48"/><path id="ray2-3" class="cls-3" d="m78.12,62.11c-1.23,1.36-1.07,2.67-2.4,3.71,1.25-.62,1.21-2.11,2.63-3.44m2.31-4.5l-3.31,8.89,3.95-8.62"/><path id="ray2-4" class="cls-3" d="m76.77,60.7c-1.66.79-2.01,2.06-3.63,2.51,1.39-.09,1.92-1.48,3.75-2.17m3.85-3.27l-6.46,6.95,6.95-6.46"/></g><g id="rays-2"><path id="ray1-5" class="cls-5" d="m80.73,57.36l-12.55,5.76s-.24.1-.17.26c.07.16.31.06.31.06l12.95-4.8m-4.88-.14c-1.91-.07-2.96,1.1-4.66.95-1.71-.15-2.67.78-3.33,1-.66.22-1.06-.23-1.15-.04-.09.2.43.62,1.37.48.94-.14,1.22-.85,3.3-.69,2.08.17,2.57-.85,4.47-.6"/><path class="cls-3" d="m68.16,63.58c-.12,0-.22-.06-.26-.16-.07-.18.07-.34.24-.41l7.22-3.31c-.41.05-.76.16-1.12.28-.63.21-1.28.42-2.34.33-1.35-.11-1.92.16-2.42.39-.27.12-.52.24-.86.29-.73.11-1.26-.11-1.44-.36-.1-.13-.07-.24-.05-.29.08-.17.26-.11.41-.06.19.07.46.16.81.04.17-.06.36-.16.59-.29.64-.35,1.5-.83,2.79-.72.83.07,1.5-.18,2.21-.44.72-.27,1.47-.55,2.45-.51v.23c-.94-.03-1.67.24-2.37.5-.74.27-1.43.53-2.31.45-1.21-.11-2.05.35-2.66.69-.24.13-.44.24-.63.31-.42.14-.74.03-.95-.04-.04-.01-.1-.03-.13-.04,0,.02.02.04.05.07.13.13.53.33,1.2.24.3-.04.53-.15.8-.27.53-.25,1.13-.53,2.53-.41,1.01.08,1.64-.12,2.25-.32.53-.17,1.03-.34,1.74-.32l4.79-2.2.09.2-4.42,2.03s.02,0,.03,0l-.03.22c-.15-.02-.28-.03-.41-.04l-7.72,3.54s-.14.07-.12.11c0,0,0,.02.07.02.05,0,.09-.02.09-.02l12.96-4.8.08.21-12.95,4.8s-.08.03-.16.04c-.01,0-.02,0-.03,0Z"/><path id="ray1-6" class="cls-5" d="m81,57.31l-13.8.52s-.26,0-.26.17c0,.17.26.17.26.17l13.8.52m-4.46-2c-1.74-.8-3.16-.11-4.67-.91-1.52-.79-2.77-.3-3.46-.35-.7-.05-.89-.62-1.05-.48-.16.14.16.74,1.08.97.92.23,1.46-.32,3.32.63,1.86.95,2.7.2,4.36,1.15"/><path class="cls-3" d="m81,58.8l-13.8-.52s-.08,0-.16-.03c-.13-.04-.21-.14-.21-.26,0-.2.19-.29.37-.29h0l7.94-.3c-.4-.11-.77-.14-1.15-.17-.66-.05-1.34-.1-2.28-.59-1.2-.62-1.83-.59-2.39-.56-.3.01-.58.03-.9-.06-.72-.18-1.12-.58-1.2-.88-.04-.16.02-.24.07-.28.14-.13.29,0,.4.1.15.14.36.32.73.35.18.01.4-.01.66-.04.72-.08,1.71-.19,2.85.4.74.39,1.45.41,2.21.44.77.03,1.57.06,2.46.46l-.09.2c-.85-.39-1.62-.42-2.37-.44-.78-.03-1.52-.06-2.31-.47-1.08-.56-2.03-.46-2.72-.38-.27.03-.5.06-.7.04-.44-.03-.7-.26-.86-.4-.03-.03-.08-.07-.11-.09,0,.02,0,.04.02.08.07.17.36.51,1.02.68.3.07.55.06.84.05.58-.03,1.24-.05,2.5.59.9.46,1.56.51,2.2.56.55.04,1.08.08,1.73.37l5.26-.2v.22s-4.85.18-4.85.18c0,0,.01,0,.02.01l-.11.19c-.13-.07-.25-.14-.37-.19l-8.49.32s-.15.01-.15.06c0,0,0,.03.05.04.05.02.09.02.09.02l13.81.52v.23Z"/><path id="ray1-7" class="cls-5" d="m81.26,57.36l-12.95-4.8s-.24-.1-.31.06c-.07.16.17.26.17.26l12.55,5.76m-3.36-3.55c-1.3-1.4-2.87-1.31-3.97-2.63-1.1-1.31-2.44-1.33-3.06-1.65-.62-.32-.58-.92-.79-.84-.2.07-.14.74.63,1.31.76.57,1.47.26,2.82,1.85,1.35,1.59,2.42,1.21,3.59,2.73"/><path class="cls-3" d="m80.69,58.74l-12.55-5.76s-.18-.08-.23-.21c-.03-.06-.03-.13,0-.19.08-.18.29-.19.45-.12l7.45,2.76c-.33-.26-.66-.42-.99-.59-.59-.3-1.2-.61-1.89-1.42-.88-1.03-1.47-1.24-1.99-1.43-.28-.1-.54-.2-.81-.4-.59-.44-.81-.97-.77-1.27.02-.16.12-.22.17-.23.18-.06.26.11.33.25.09.18.21.43.54.6.16.08.37.14.62.21.7.2,1.65.48,2.48,1.46.53.64,1.18.94,1.87,1.25.7.32,1.43.65,2.09,1.37l-.16.15c-.63-.68-1.34-1-2.02-1.32-.71-.33-1.39-.64-1.95-1.31-.78-.93-1.7-1.2-2.37-1.39-.26-.07-.48-.14-.66-.23-.4-.2-.55-.5-.64-.7-.02-.04-.05-.09-.06-.12,0,.01-.01.04-.01.09,0,.19.14.61.68,1.02.25.18.48.27.76.37.55.2,1.17.43,2.08,1.5.66.77,1.25,1.07,1.82,1.36.49.25.97.49,1.45,1l4.94,1.83-.08.21-4.56-1.69s.01.01.02.02l-.18.14c-.09-.12-.18-.22-.27-.32l-7.96-2.95s-.14-.05-.16,0c-.02.04.09.1.11.11l12.56,5.76-.09.2Z"/><path id="ray1-8" class="cls-5" d="m81.49,57.51l-10.13-9.39s-.18-.18-.31-.06c-.12.12.06.31.06.31l9.39,10.13m-1.74-4.57c-.67-1.79-2.15-2.31-2.66-3.95-.51-1.63-1.74-2.17-2.2-2.7-.45-.53-.19-1.07-.4-1.08-.22-.01-.41.63.08,1.45.49.82,1.26.8,1.9,2.79.64,1.99,1.77,2.05,2.27,3.9"/><path class="cls-3" d="m80.43,58.57l-9.39-10.13s-.06-.06-.09-.13c-.06-.12-.05-.24.04-.33.14-.14.34-.07.47.06l5.82,5.4c-.2-.36-.44-.64-.69-.93-.43-.5-.88-1.02-1.2-2.03-.41-1.29-.88-1.71-1.29-2.09-.22-.2-.42-.39-.6-.68-.38-.63-.38-1.21-.22-1.47.08-.14.19-.16.25-.15.19.01.2.2.21.36.01.2.03.48.27.76.12.13.29.27.49.44.57.45,1.35,1.07,1.73,2.3.25.79.74,1.32,1.25,1.87.53.57,1.07,1.15,1.41,2.06l-.21.08c-.32-.87-.85-1.44-1.36-1.99-.53-.57-1.04-1.12-1.3-1.96-.36-1.16-1.11-1.76-1.65-2.19-.21-.17-.39-.31-.52-.46-.29-.34-.31-.67-.33-.9,0-.05,0-.1-.01-.14-.01.01-.03.03-.05.07-.07.17-.11.62.24,1.2.16.26.34.43.56.63.43.39.92.84,1.35,2.18.31.97.74,1.47,1.16,1.95.36.42.71.82.96,1.48l3.86,3.58-.15.17-3.56-3.31s0,.02,0,.02l-.22.06c-.04-.14-.08-.27-.13-.39l-6.23-5.78s-.12-.1-.15-.06c0,0-.02.02,0,.07.02.04.06.08.06.08l9.4,10.13-.17.15Z"/><path id="ray2-5" class="cls-3" d="m76.06,58.87c-1.83.09-2.65,1.13-4.32.93,1.32.45,2.35-.63,4.3-.57m4.81-1.55l-8.62,3.95,8.89-3.31"/><path id="ray2-6" class="cls-3" d="m76.1,56.91c-1.73-.62-2.88.03-4.34-.8,1.05.92,2.41.31,4.19,1.12m5.04.41l-9.48.35,9.48.35"/><path id="ray2-7" class="cls-3" d="m76.89,55.12c-1.36-1.23-2.67-1.07-3.71-2.4.62,1.25,2.11,1.21,3.44,2.63m4.5,2.31l-8.89-3.31,8.62,3.95"/><path id="ray2-8" class="cls-3" d="m78.3,53.77c-.79-1.66-2.06-2.01-2.51-3.63.09,1.39,1.48,1.92,2.17,3.75m3.27,3.85l-6.95-6.46,6.46,6.95"/></g><g id="rays-3"><path id="ray1-9" class="cls-5" d="m81.64,57.73l-5.76-12.55s-.1-.24-.26-.17c-.16.07-.06.31-.06.31l4.8,12.95m.14-4.88c.07-1.91-1.1-2.96-.95-4.66.15-1.71-.78-2.67-1-3.33-.22-.66.23-1.06.04-1.15-.2-.09-.62.43-.48,1.37.14.94.85,1.22.69,3.3-.17,2.08.85,2.57.6,4.47"/><path class="cls-3" d="m80.26,58.3l-4.8-12.95s-.03-.08-.04-.16c0-.14.05-.24.16-.29.18-.07.34.07.41.23l3.31,7.22c-.05-.41-.16-.76-.28-1.12-.21-.63-.42-1.28-.33-2.34.11-1.35-.16-1.92-.39-2.42-.13-.27-.24-.52-.29-.86-.11-.73.11-1.26.36-1.44.13-.1.24-.07.29-.05.17.08.11.26.06.41-.07.19-.16.46-.04.81.06.17.16.36.29.59.35.64.83,1.51.72,2.79-.07.83.17,1.5.44,2.21.27.72.55,1.47.51,2.45h-.23c.03-.94-.24-1.67-.5-2.37-.27-.74-.53-1.43-.45-2.31.11-1.21-.35-2.05-.69-2.66-.13-.24-.24-.44-.31-.63-.14-.42-.03-.74.04-.95.01-.04.03-.1.04-.13-.02,0-.04.02-.07.05-.13.13-.33.53-.24,1.2.04.3.15.53.27.8.25.53.53,1.13.41,2.53-.08,1.01.12,1.64.32,2.25.17.53.34,1.03.32,1.74l2.2,4.79-.2.09-2.03-4.42s0,.02,0,.03l-.22-.03c.02-.15.03-.28.04-.41l-3.54-7.72s-.07-.14-.11-.12c0,0-.02.01-.02.07,0,.05.02.09.02.09l4.8,12.96-.21.08Z"/><path id="ray1-10" class="cls-5" d="m81.69,58l-.52-13.8s0-.26-.17-.26c-.17,0-.17.26-.17.26l-.52,13.8m2-4.46c.8-1.74.11-3.16.91-4.67.79-1.52.3-2.77.35-3.46.05-.7.62-.89.48-1.05-.14-.16-.74.16-.97,1.08-.23.92.32,1.46-.63,3.32-.95,1.86-.2,2.7-1.15,4.36"/><path class="cls-3" d="m80.42,58h-.22s.52-13.81.52-13.81c0,0,0-.08.03-.16.04-.13.14-.21.26-.21h0c.2,0,.29.19.29.37l.3,7.94c.11-.4.14-.77.17-1.15.05-.66.1-1.34.59-2.28.62-1.2.59-1.83.56-2.39-.01-.3-.03-.58.06-.9.18-.72.58-1.12.88-1.2.16-.04.24.02.28.07.13.14,0,.29-.1.4-.13.15-.32.36-.35.73-.01.18.01.4.04.66.08.72.19,1.71-.4,2.85-.39.74-.41,1.45-.44,2.21-.03.77-.06,1.57-.46,2.46l-.2-.09c.39-.85.42-1.62.44-2.37.03-.78.06-1.52.47-2.31.56-1.08.46-2.03.38-2.72-.03-.27-.06-.5-.04-.7.03-.44.26-.7.4-.86.03-.03.07-.08.09-.11-.02,0-.04,0-.08.02-.17.07-.51.36-.68,1.02-.07.3-.06.55-.05.84.03.58.05,1.24-.59,2.5-.46.9-.51,1.56-.56,2.2-.04.55-.08,1.08-.37,1.73l.2,5.26h-.23s-.18-4.85-.18-4.85c0,0,0,.01-.01.02l-.19-.11c.07-.13.14-.25.19-.37l-.32-8.49s-.01-.15-.06-.15c0,0-.03,0-.04.05-.02.05-.02.09-.02.09l-.52,13.81Z"/><path id="ray1-11" class="cls-5" d="m81.64,58.26l4.8-12.95s.1-.24-.06-.31c-.16-.07-.26.17-.26.17l-5.76,12.55m3.55-3.36c1.4-1.3,1.31-2.87,2.63-3.97,1.31-1.1,1.33-2.44,1.65-3.06.32-.62.92-.58.84-.79-.07-.2-.74-.14-1.31.63-.57.76-.26,1.47-1.85,2.82-1.59,1.35-1.21,2.42-2.73,3.59"/><path class="cls-3" d="m81.75,58.3l-.21-.08,1.69-4.56s-.01.01-.02.02l-.14-.18c.12-.09.22-.18.32-.27l2.95-7.96s.05-.14,0-.16c-.04-.02-.1.09-.11.11l-5.76,12.56-.2-.09,5.76-12.55s.08-.18.21-.23c.06-.03.13-.03.19,0,.18.08.19.29.12.45l-2.76,7.45c.26-.33.42-.66.59-.99.3-.59.61-1.2,1.42-1.89,1.03-.87,1.24-1.47,1.43-1.99.1-.28.2-.54.4-.81.44-.59.97-.81,1.27-.77.16.02.22.12.23.17.06.18-.11.26-.25.33-.18.09-.43.21-.6.54-.08.16-.14.37-.21.62-.2.7-.48,1.65-1.46,2.48-.64.53-.94,1.18-1.25,1.87-.32.7-.65,1.43-1.37,2.09l-.15-.16c.68-.63,1-1.34,1.32-2.02.33-.71.63-1.39,1.31-1.95.93-.78,1.2-1.7,1.39-2.37.07-.26.14-.48.23-.66.2-.4.5-.55.7-.64.04-.02.09-.05.12-.06-.01,0-.04-.01-.09-.01-.18,0-.61.14-1.02.68-.18.25-.27.48-.37.76-.2.55-.43,1.17-1.5,2.08-.77.66-1.07,1.25-1.36,1.82-.25.49-.49.97-1,1.45l-1.83,4.94Z"/><path id="ray1-12" class="cls-5" d="m81.49,58.49l9.39-10.13s.18-.18.06-.31c-.12-.12-.31.06-.31.06l-10.13,9.39m4.57-1.74c1.79-.67,2.31-2.15,3.95-2.66,1.63-.51,2.17-1.74,2.7-2.2.53-.45,1.07-.19,1.08-.4.01-.22-.63-.41-1.45.08-.82.49-.8,1.26-2.79,1.9-1.99.64-2.05,1.77-3.9,2.27"/><path class="cls-3" d="m81.57,58.57l-.16-.15,3.31-3.56s-.02,0-.02,0l-.06-.22c.14-.04.27-.08.39-.13l5.78-6.23s.1-.12.06-.15c0,0-.01,0-.02,0-.04,0-.1.05-.13.07l-10.13,9.4-.15-.17,10.13-9.39s.14-.13.28-.13c.07,0,.13.03.18.08.14.14.07.34-.06.47l-5.4,5.82c.36-.2.64-.44.93-.69.5-.43,1.02-.88,2.03-1.2,1.29-.41,1.71-.88,2.09-1.29.2-.22.39-.42.68-.6.63-.38,1.21-.38,1.47-.22.14.08.16.19.15.25-.01.19-.2.2-.36.21-.2.01-.48.03-.76.27-.13.12-.27.29-.44.49-.45.57-1.07,1.35-2.3,1.73-.79.25-1.32.74-1.87,1.25-.57.53-1.15,1.07-2.06,1.41l-.08-.21c.87-.32,1.44-.85,1.99-1.36.57-.53,1.12-1.04,1.96-1.3,1.16-.36,1.76-1.11,2.19-1.65.17-.21.31-.39.46-.52.34-.29.67-.31.9-.33.05,0,.1,0,.14-.01-.01-.01-.03-.03-.07-.05-.17-.07-.62-.11-1.2.24-.26.16-.43.34-.63.56-.39.43-.84.92-2.18,1.35-.97.31-1.47.74-1.95,1.16-.42.36-.82.71-1.48.96l-3.58,3.86Z"/><path id="ray2-9" class="cls-3" d="m80.13,53.06c-.09-1.83-1.13-2.65-.93-4.32-.45,1.32.63,2.35.57,4.3m1.55,4.81l-3.95-8.62,3.31,8.89"/><path id="ray2-10" class="cls-3" d="m82.09,53.1c.62-1.73-.03-2.88.8-4.34-.92,1.05-.31,2.41-1.12,4.19m-.41,5.04l-.35-9.48-.35,9.48"/><path id="ray2-11" class="cls-3" d="m83.88,53.89c1.23-1.36,1.07-2.67,2.4-3.71-1.25.62-1.21,2.11-2.63,3.44m-2.31,4.5l3.31-8.89-3.95,8.62"/><path id="ray2-12" class="cls-3" d="m85.23,55.3c1.66-.79,2.01-2.06,3.63-2.51-1.39.09-1.92,1.48-3.75,2.17m-3.85,3.27l6.46-6.95-6.95,6.46"/></g><g id="rays-4"><path id="ray1-13" class="cls-5" d="m81.27,58.64l12.55-5.76s.24-.1.17-.26c-.07-.16-.31-.06-.31-.06l-12.95,4.8m4.88.14c1.91.07,2.96-1.1,4.66-.95,1.71.15,2.67-.78,3.33-1,.66-.22,1.06.23,1.15.04.09-.2-.43-.62-1.37-.48-.94.14-1.22.85-3.3.69-2.08-.17-2.57.85-4.47.6"/><path class="cls-3" d="m81.31,58.74l-.09-.2,4.42-2.03h-.03s.03-.23.03-.23c.15.02.28.03.41.04l7.72-3.54s.14-.07.12-.11c0-.01,0-.01-.01-.02-.04-.01-.11,0-.14.02l-12.96,4.8-.08-.21,12.95-4.8s.18-.07.31-.01c.06.03.11.07.14.14.05.11.01.23-.09.32-.06.06-.13.09-.14.09l-7.22,3.31c.41-.05.76-.16,1.12-.28.63-.21,1.28-.42,2.34-.33,1.35.11,1.92-.16,2.42-.39.27-.13.52-.24.86-.29.73-.11,1.26.11,1.44.36.1.13.07.24.05.29-.08.17-.26.11-.41.06-.19-.07-.46-.16-.81-.04-.17.06-.36.16-.59.29-.64.35-1.51.83-2.79.72-.83-.08-1.5.18-2.21.44-.72.27-1.47.55-2.45.51v-.23c.94.04,1.67-.24,2.37-.5.74-.27,1.43-.53,2.31-.45,1.21.11,2.05-.35,2.66-.69.24-.13.44-.24.63-.31.42-.14.74-.03.95.04.04.01.1.03.13.04,0-.02-.02-.04-.05-.07-.13-.13-.53-.33-1.2-.24-.3.04-.53.15-.8.27-.53.25-1.13.53-2.53.41-1.01-.08-1.64.12-2.25.32-.53.17-1.03.34-1.74.32l-4.79,2.2Z"/><path id="ray1-14" class="cls-5" d="m81,58.69l13.8-.52s.26,0,.26-.17c0-.17-.26-.17-.26-.17l-13.8-.52m4.46,2c1.74.8,3.16.11,4.67.91,1.52.79,2.77.3,3.46.35.7.05.89.62,1.05.48.16-.14-.16-.74-1.08-.97-.92-.23-1.46.32-3.32-.63-1.86-.95-2.7-.2-4.36-1.15"/><path class="cls-3" d="m94.59,61.18c-.1,0-.19-.08-.28-.16-.15-.13-.36-.32-.73-.35-.18-.01-.4.01-.66.04-.72.08-1.71.19-2.85-.4-.74-.39-1.45-.41-2.21-.44-.77-.03-1.57-.06-2.46-.46l.09-.2c.85.39,1.62.42,2.37.44.78.03,1.52.06,2.31.47,1.08.56,2.03.46,2.72.38.27-.03.5-.06.7-.04.44.03.7.26.86.4.03.03.08.07.11.09,0-.02,0-.04-.02-.08-.07-.17-.36-.51-1.02-.68-.3-.07-.55-.06-.84-.05-.58.02-1.24.05-2.5-.59-.9-.46-1.56-.51-2.2-.56-.55-.04-1.08-.08-1.73-.37l-5.26.2v-.23s4.85-.18,4.85-.18c0,0-.01,0-.02-.01l.11-.19c.13.07.25.14.37.19l8.49-.32s.15-.01.15-.06c0,0,0-.03-.05-.04-.05-.02-.09-.02-.09-.02l-13.81-.52v-.22s13.81.52,13.81.52c0,0,.08,0,.16.03.13.04.21.14.21.26,0,.2-.19.29-.37.29h0l-7.94.3c.4.11.77.14,1.15.17.66.05,1.34.1,2.28.59,1.2.62,1.83.59,2.39.56.3-.01.58-.03.9.06.72.18,1.12.58,1.2.88.04.16-.02.24-.07.28-.04.04-.08.05-.13.05Z"/><path id="ray1-15" class="cls-5" d="m80.74,58.64l12.95,4.8s.24.1.31-.06c.07-.16-.17-.26-.17-.26l-12.55-5.76m3.36,3.55c1.3,1.4,2.87,1.31,3.97,2.63,1.1,1.31,2.44,1.33,3.06,1.65.62.32.58.92.79.84.2-.07.14-.74-.63-1.31-.76-.57-1.47-.26-2.82-1.85-1.35-1.59-2.42-1.21-3.59-2.73"/><path class="cls-3" d="m92.41,66.15c-.13,0-.2-.14-.26-.26-.09-.18-.21-.43-.54-.6-.16-.08-.37-.14-.62-.21-.7-.2-1.65-.48-2.48-1.46-.53-.64-1.18-.94-1.87-1.25-.7-.32-1.43-.65-2.09-1.37l.16-.15c.63.68,1.34,1,2.02,1.32.71.33,1.39.63,1.95,1.31.78.93,1.7,1.2,2.37,1.39.26.07.48.14.66.23.4.2.55.5.64.7.02.04.05.09.06.12,0-.01.01-.04.01-.09,0-.19-.14-.61-.68-1.02-.25-.18-.48-.27-.76-.37-.55-.2-1.17-.43-2.08-1.5-.66-.77-1.25-1.07-1.82-1.36-.49-.25-.97-.49-1.45-1l-4.94-1.83.08-.21,4.56,1.69s-.01-.01-.02-.02l.18-.14c.09.12.18.22.27.32l7.96,2.95s.14.05.16,0c0-.01,0-.02,0-.02-.02-.04-.08-.08-.11-.09l-12.56-5.76.09-.2,12.55,5.76s.18.08.23.21c.03.06.03.13,0,.19-.08.18-.29.19-.45.12l-7.45-2.76c.33.26.66.42.99.59.59.3,1.2.61,1.89,1.42.87,1.03,1.47,1.24,1.99,1.43.28.1.54.2.81.4.59.44.81.97.77,1.27-.02.16-.12.22-.17.23-.03,0-.05.01-.07.01Z"/><path id="ray1-16" class="cls-5" d="m80.51,58.49l10.13,9.39s.18.18.31.06c.12-.12-.06-.31-.06-.31l-9.39-10.13m1.74,4.57c.67,1.79,2.15,2.31,2.66,3.95.51,1.63,1.74,2.17,2.2,2.7.45.53.19,1.07.4,1.08.22.01.41-.63-.08-1.45-.49-.82-1.26-.8-1.9-2.79-.64-1.99-1.77-2.05-2.27-3.9"/><path class="cls-3" d="m88.5,69.91s0,0-.01,0c-.19-.01-.2-.2-.21-.36-.01-.2-.03-.48-.27-.76-.12-.13-.29-.27-.49-.44-.57-.45-1.35-1.07-1.73-2.3-.25-.79-.74-1.32-1.25-1.87-.53-.57-1.07-1.15-1.41-2.06l.21-.08c.32.87.85,1.44,1.36,1.99.53.57,1.04,1.12,1.3,1.96.36,1.16,1.11,1.76,1.65,2.19.21.17.39.31.52.46.29.34.31.67.33.9,0,.05,0,.1.01.14.01-.01.03-.03.05-.07.07-.17.11-.62-.24-1.2-.16-.26-.34-.43-.56-.63-.43-.39-.92-.84-1.35-2.18-.31-.97-.74-1.47-1.16-1.95-.36-.42-.71-.82-.96-1.48l-3.86-3.58.15-.16,3.56,3.31s0-.02,0-.02l.22-.06c.04.14.08.27.13.39l6.23,5.78s.12.1.15.06c.03-.03-.05-.13-.06-.15l-9.4-10.13.16-.15,9.39,10.13s.06.06.09.13c.06.12.05.24-.04.33-.14.14-.34.07-.47-.06l-5.82-5.4c.2.36.44.64.69.93.43.5.88,1.02,1.2,2.03.41,1.29.88,1.71,1.29,2.09.22.2.42.39.6.68.38.63.38,1.21.22,1.47-.08.13-.18.15-.23.15Z"/><path id="ray2-13" class="cls-3" d="m85.94,57.13c1.83-.09,2.65-1.13,4.32-.93-1.32-.45-2.35.63-4.3.57m-4.81,1.55l8.62-3.95-8.89,3.31"/><path id="ray2-14" class="cls-3" d="m85.9,59.09c1.73.62,2.88-.03,4.34.8-1.05-.92-2.41-.31-4.19-1.12m-5.04-.41l9.48-.35-9.48-.35"/><path id="ray2-15" class="cls-3" d="m85.11,60.88c1.36,1.23,2.67,1.07,3.71,2.4-.62-1.25-2.11-1.21-3.44-2.63m-4.5-2.31l8.89,3.31-8.62-3.95"/><path id="ray2-16" class="cls-3" d="m83.7,62.23c.79,1.66,2.06,2.01,2.51,3.63-.09-1.39-1.48-1.92-2.17-3.75m-3.27-3.85l6.95,6.46-6.46-6.95"/></g><circle class="cls-5" cx="81" cy="58" r="5.63"/><path class="cls-3" d="m81,63.78c-3.19,0-5.78-2.59-5.78-5.78s2.59-5.78,5.78-5.78,5.78,2.59,5.78,5.78-2.59,5.78-5.78,5.78Zm0-11.25c-3.02,0-5.47,2.46-5.47,5.47s2.46,5.47,5.47,5.47,5.47-2.46,5.47-5.47-2.46-5.47-5.47-5.47Z"/><path id="loweyecontour" class="cls-2" d="m82.92,56.8c-.38,0-.75.17-.97.51.43.39,1.39.43,2.04-.04-.28-.3-.69-.47-1.07-.47h0Zm0,.09c.37,0,.72.16.77.34-.43.48-1.12.43-1.56.09.19-.3.49-.42.78-.42h0Z"/><path id="uppalpebra" class="cls-3" d="m82.99,56.53c-.56,0-.69.13-.95.35-.26.22-.39.17-.43.22-.04.04,0,.17.09.13s.26-.13.52-.35c.26-.22.52-.22.78-.22.78,0,1.21.65,1.3.61.09-.04-.43-.74-1.3-.74h0Z"/><path id="eyebrow_nose" class="cls-3" d="m84.55,56.79c-1-.87-2.25-1-2.94-.35-.17.23-.28.47-.32.72-.09.49.07,1.02.45,1.57-.04,0-.13.04-.17.09-.34-.66-.47-1.33-.35-1.97.03-.17.08-.33.14-.49.95-.78,2.25-.87,3.2.43h0Z"/><circle id="pupil" class="cls-3" cx="82.9" cy="57.22" r=".39"/><path id="lowpalpebra" class="cls-3" d="m84.03,57.48c-.74.56-1.47.52-1.9.26-.43-.26-.43-.35-.35-.35s.17.09.52.26c.35.17.87.17,1.73-.17h0Z"/><path class="cls-3" d="m80.14,58.78c-.18.03-.32.2-.32.39,0,.21.18.39.39.39.13,0,.24-.06.32-.16.15.11.36.12.47.13.02,0,.04,0,.05,0,.11,0,.32-.01.47-.13.07.1.19.16.32.16.21,0,.39-.17.39-.39,0-.19-.13-.35-.32-.39.1.04.17.14.17.25,0,.14-.12.26-.26.26s-.25-.11-.26-.25c-.04.08-.21.34-.54.35-.33-.01-.5-.26-.54-.35,0,.14-.12.25-.26.25s-.26-.12-.26-.26c0-.11.07-.21.17-.25h0Z"/><path class="cls-3" d="m80.56,59.93c-.43,0-.6.39-.99.65.22-.09.39-.26.69-.43.3-.17.56.04.73.04h0c.17,0,.43-.21.73-.04.3.17.48.34.7.43-.39-.26-.57-.65-1-.65-.09,0-.26.05-.43.13h0c-.17-.09-.34-.13-.43-.13Z"/><path class="cls-3" d="m80.42,60.44c-.17,0-.4.04-.72.14.78-.17.95.09,1.3.09h0c.35,0,.52-.26,1.3-.09-.87-.26-1.04-.09-1.3-.09h0c-.16,0-.29-.06-.58-.05h0Z"/><path class="cls-3" d="m79.73,60.58c-.05,0-.11,0-.16,0,.91.09.47.61,1.42.61h0c.95,0,.52-.52,1.43-.61-.95-.09-.65.47-1.43.47h0c-.73,0-.51-.49-1.26-.48h0Z"/><path class="cls-3" d="m81.78,61.98c0-.43-.35-.78-.78-.78s-.78.35-.78.78c.09-.36.41-.62.78-.62s.69.25.78.62h0Z"/><path id="eyebrow_nose-2" class="cls-3" d="m77.5,56.79c1-.87,2.25-1,2.94-.35.17.23.28.47.32.72.09.49-.07,1.02-.45,1.57.04,0,.13.04.17.09.34-.66.47-1.33.35-1.97-.03-.17-.08-.33-.14-.49-.95-.78-2.25-.87-3.2.43h0Z"/><path id="uppalpebra-2" class="cls-3" d="m79.06,56.53c.56,0,.69.13.95.35.26.22.39.17.43.22.04.04,0,.17-.09.13s-.26-.13-.52-.35c-.26-.22-.52-.22-.78-.22-.78,0-1.21.65-1.3.61-.09-.04.43-.74,1.3-.74h0Z"/><path id="loweyecontour-2" class="cls-2" d="m79.03,56.8c-.38,0-.75.17-.97.51.43.39,1.39.43,2.04-.04-.28-.3-.69-.47-1.07-.47h0Zm0,.09c.37,0,.72.16.77.34-.43.48-1.12.43-1.56.09.19-.3.49-.42.78-.42h0Z"/><circle id="pupil-2" class="cls-3" cx="79.08" cy="57.22" r=".39"/><path id="lowpalpebra-2" class="cls-3" d="m78.02,57.48c.74.56,1.47.52,1.9.26.43-.26.43-.35.35-.35s-.17.09-.52.26c-.35.17-.87.17-1.73-.17h0Z"/></g></svg>